<?xml version="1.0" encoding="iso-8859-1"?>
<!-- Generator: Adobe Illustrator 19.0.0, SVG Export Plug-In . SVG Version: 6.00 Build 0)  -->
<svg version="1.1" id="Capa_1" xmlns="http://www.w3.org/2000/svg" xmlns:xlink="http://www.w3.org/1999/xlink" x="0px" y="0px"
	 viewBox="0 0 512.001 512.001" style="enable-background:new 0 0 512.001 512.001;" xml:space="preserve">
<path style="fill:#898998;" d="M429.59,79.868h12.997c16.521,0,29.914,13.393,29.914,29.914l0,0
	c0,16.521-13.393,29.914-29.914,29.914h-12.741L429.59,79.868z"/>
<path style="fill:#FF5D5D;" d="M354.078,166.043h30.023c27.602,0,49.977-22.376,49.977-49.977v-12.131
	c0-27.602-22.376-49.977-49.977-49.977h-30.023c-27.602,0-49.977,22.376-49.977,49.977v12.131
	C304.101,143.667,326.477,166.043,354.078,166.043z"/>
<path style="fill:#C9F3FF;" d="M64.001,448H53.809c-24.194,0-43.808-19.614-43.808-43.808V285.123
	c0-24.194,19.614-44.123,43.808-44.123h404.384c24.195,0,43.808,19.929,43.808,44.123v119.068c0,24.195-19.613,43.809-43.808,43.809
	h-16.156H64.001z"/>
<g>
	<path style="fill:#FFCDAC;" d="M458.001,502v-93.348c0-9.953-8.068-18.021-18.021-18.021l0,0c-9.953,0-18.021,8.068-18.021,18.021
		v47.525v-65.175c0-9.953-8.068-18.021-18.021-18.021l0,0c-9.953,0-18.021,8.068-18.021,18.021v65.175v-99.242
		c0-9.953-8.068-18.021-18.021-18.021l0,0c-9.953,0-18.021,8.068-18.021,18.021v99.242v-65.175c0-9.953-8.068-18.021-18.021-18.021
		l0,0c-9.953,0-18.021,8.068-18.021,18.021v65.175h0.214v-3c0-19.906-16.137-36.043-36.043-36.043l0,0v46.168
		c0,14.05,4.751,27.688,13.481,38.697l0,0h166.516V502z"/>
	<path style="fill:#FFCDAC;" d="M53.876,502v-93.348c0-9.953,8.068-18.021,18.021-18.021l0,0c9.953,0,18.021,8.068,18.021,18.021
		v47.525v-65.175c0-9.953,8.068-18.021,18.021-18.021l0,0c9.953,0,18.021,8.068,18.021,18.021v65.175v-99.242
		c0-9.953,8.068-18.021,18.021-18.021l0,0c9.953,0,18.021,8.068,18.021,18.021v99.242v-65.175c0-9.953,8.068-18.021,18.021-18.021
		l0,0c9.953,0,18.021,8.068,18.021,18.021v65.175h-0.214v-3c0-19.906,16.137-36.043,36.043-36.043l0,0v46.168
		c0,14.05-4.751,27.688-13.481,38.697l0,0H53.876V502z"/>
</g>
<path d="M105.641,294.27c-1.859,1.86-2.93,4.44-2.93,7.07s1.07,5.21,2.93,7.07c1.86,1.86,4.44,2.93,7.07,2.93s5.21-1.07,7.07-2.93
	c1.859-1.86,2.93-4.44,2.93-7.07s-1.07-5.21-2.93-7.07c-1.86-1.86-4.44-2.93-7.07-2.93S107.501,292.41,105.641,294.27z"/>
<path d="M160.476,291.341c-5.522,0-10,4.477-10,10s4.478,10,10,10h8.658c5.522,0,10-4.477,10-10s-4.478-10-10-10H160.476z"/>
<path d="M215.311,294.27c-1.859-1.86-4.439-2.93-7.069-2.93c-2.641,0-5.21,1.07-7.07,2.93c-1.87,1.86-2.93,4.44-2.93,7.07
	s1.06,5.21,2.93,7.07c1.86,1.86,4.439,2.93,7.07,2.93c2.63,0,5.199-1.07,7.069-2.93c1.86-1.86,2.931-4.44,2.931-7.07
	S217.171,296.13,215.311,294.27z"/>
<path d="M256.001,311.34c2.63,0,5.21-1.07,7.069-2.93c1.86-1.86,2.931-4.44,2.931-7.07s-1.07-5.21-2.931-7.07
	c-1.859-1.86-4.439-2.93-7.069-2.93s-5.21,1.07-7.07,2.93s-2.93,4.44-2.93,7.07s1.069,5.21,2.93,7.07
	C250.791,310.27,253.371,311.34,256.001,311.34z"/>
<path d="M303.761,311.34c2.64,0,5.21-1.07,7.07-2.93c1.87-1.86,2.93-4.44,2.93-7.07s-1.06-5.21-2.93-7.07
	c-1.86-1.86-4.431-2.93-7.07-2.93c-2.63,0-5.21,1.07-7.07,2.93c-1.859,1.86-2.93,4.44-2.93,7.07s1.07,5.21,2.93,7.07
	C298.551,310.27,301.131,311.34,303.761,311.34z"/>
<path d="M358.601,308.41c1.86-1.86,2.931-4.44,2.931-7.07s-1.07-5.21-2.931-7.07c-1.87-1.86-4.439-2.93-7.069-2.93
	c-2.641,0-5.221,1.07-7.08,2.93c-1.86,1.86-2.92,4.44-2.92,7.07s1.06,5.21,2.92,7.07c1.869,1.86,4.439,2.93,7.08,2.93
	C354.161,311.34,356.731,310.27,358.601,308.41z"/>
<path d="M406.361,308.41c1.86-1.86,2.931-4.43,2.931-7.07c0-2.63-1.07-5.21-2.931-7.07c-1.859-1.86-4.439-2.93-7.069-2.93
	c-2.641,0-5.21,1.07-7.07,2.93c-1.86,1.86-2.93,4.44-2.93,7.07s1.069,5.21,2.93,7.07c1.86,1.86,4.44,2.93,7.07,2.93
	S404.501,310.27,406.361,308.41z"/>
<path d="M64.001,342.169c-5.522,0-10,4.477-10,10s4.478,10,10,10h7.896c5.522,0,10-4.477,10-10s-4.478-10-10-10H64.001z"/>
<path d="M223.001,362.17c2.63,0,5.21-1.07,7.069-2.93c1.86-1.86,2.931-4.44,2.931-7.07s-1.07-5.21-2.931-7.07
	c-1.859-1.86-4.439-2.93-7.069-2.93s-5.21,1.07-7.07,2.93s-2.93,4.44-2.93,7.07s1.069,5.21,2.93,7.07S220.371,362.17,223.001,362.17
	z"/>
<path d="M306.023,352.169c0-5.523-4.478-10-10-10h-40.022c-5.522,0-10,4.477-10,10s4.478,10,10,10h40.021
	C301.545,362.169,306.023,357.692,306.023,352.169z"/>
<path d="M448.001,362.169c5.522,0,10-4.477,10-10s-4.478-10-10-10h-8.021c-5.522,0-10,4.477-10,10s4.478,10,10,10H448.001z"/>
<path d="M265.501,120c2.63,0,5.21-1.07,7.069-2.93c1.86-1.86,2.931-4.44,2.931-7.07s-1.07-5.21-2.931-7.07
	c-1.859-1.86-4.439-2.93-7.069-2.93s-5.21,1.07-7.07,2.93c-1.86,1.86-2.93,4.44-2.93,7.07s1.069,5.21,2.93,7.07
	S262.871,120,265.501,120z"/>
<path d="M458.193,231H266.001v-31.324c0-19.657-15.992-35.648-35.648-35.648h-86.345c-12.139,0-22.014-9.875-22.014-22.014
	S131.869,120,144.008,120h78.493c5.522,0,10-4.477,10-10s-4.478-10-10-10h-78.493c-23.166,0-42.014,18.847-42.014,42.014
	s18.848,42.014,42.014,42.014h86.345c8.629,0,15.648,7.02,15.648,15.648V231H53.81c-29.67,0-53.809,24.279-53.809,54.123v119.069
	c0,26.275,18.936,48.198,43.875,52.874V502c0,5.523,4.478,10,10,10s10-4.477,10-10v-93.348c0-4.423,3.599-8.021,8.021-8.021
	s8.021,3.599,8.021,8.021v47.525c0,5.523,4.478,10,10,10s10-4.477,10-10v-65.175c0-4.423,3.599-8.021,8.021-8.021
	s8.021,3.599,8.021,8.021v65.175c0,5.523,4.478,10,10,10s10-4.477,10-10v-65.175v-34.067c0-4.423,3.599-8.021,8.021-8.021
	s8.021,3.599,8.021,8.021v34.067v65.175c0,5.523,4.478,10,10,10s10-4.477,10-10v-65.175c0-4.423,3.599-8.021,8.021-8.021
	s8.021,3.599,8.021,8.021v57.793c-0.137,1.443-0.214,2.904-0.214,4.383v3c0,5.523,4.478,10,10,10c0.036,0,0.071-0.005,0.107-0.005
	s0.071,0.005,0.107,0.005c5.522,0,10-4.477,10-10v-6.201c1.162-9.424,7.361-17.311,15.829-20.846v34.172
	c0,11.745-4.019,23.281-11.316,32.483c-3.432,4.328-2.706,10.617,1.621,14.049c1.839,1.458,4.03,2.166,6.207,2.166
	c2.948,0,5.868-1.298,7.842-3.787c10.09-12.723,15.646-28.672,15.646-44.911v-46.168c0-5.523-4.478-10-10-10
	c-9.566,0-18.458,2.935-25.829,7.948v-24.081c0-15.451-12.57-28.021-28.021-28.021c-2.787,0-5.479,0.415-8.021,1.176v-7.221
	c0-15.451-12.57-28.021-28.021-28.021s-28.021,12.57-28.021,28.021v7.221c-2.543-0.761-5.234-1.176-8.021-1.176
	c-12.401,0-22.939,8.1-26.62,19.285c-2.947-1.056-6.118-1.635-9.423-1.635c-15.451,0-28.021,12.57-28.021,28.021v27.856
	c-13.808-4.253-23.874-17.13-23.874-32.316V285.123C20.001,266.308,35.167,251,53.81,251h404.383
	c18.642,0,33.808,15.308,33.808,34.123v119.069c0,15.231-10.127,28.138-24,32.352v-27.892c0-15.451-12.57-28.021-28.021-28.021
	c-3.305,0-6.477,0.579-9.423,1.635c-3.68-11.185-14.219-19.285-26.62-19.285c-2.787,0-5.479,0.415-8.021,1.176v-7.221
	c0-15.451-12.57-28.021-28.021-28.021c-15.45,0-28.021,12.57-28.021,28.021v7.221c-2.543-0.761-5.234-1.176-8.021-1.176
	c-15.451,0-28.021,12.57-28.021,28.021v24.081c-7.371-5.013-16.263-7.948-25.829-7.948c-5.522,0-10,4.477-10,10v46.168
	c0,16.238,5.557,32.188,15.646,44.911c1.974,2.489,4.894,3.787,7.842,3.787c2.177,0,4.369-0.708,6.207-2.166
	c4.327-3.432,5.053-9.721,1.621-14.049c-7.299-9.202-11.318-20.738-11.318-32.483v-34.172c8.468,3.535,14.667,11.421,15.829,20.846
	v6.201c0,5.523,4.478,10,10,10c0.036,0,0.071-0.005,0.107-0.005c0.036,0,0.071,0.005,0.107,0.005c5.522,0,10-4.477,10-10v-3
	c0-1.479-0.077-2.939-0.214-4.383v-57.793c0-4.423,3.599-8.021,8.021-8.021s8.021,3.599,8.021,8.021v65.175c0,5.523,4.478,10,10,10
	s10-4.477,10-10v-65.175v-34.067c0-4.423,3.598-8.021,8.021-8.021s8.021,3.599,8.021,8.021v34.067v65.175c0,5.523,4.478,10,10,10
	s10-4.477,10-10v-65.175c0-4.423,3.599-8.021,8.021-8.021s8.021,3.599,8.021,8.021v65.175c0,5.523,4.478,10,10,10s10-4.477,10-10
	v-47.525c0-4.423,3.599-8.021,8.021-8.021s8.021,3.599,8.021,8.021V502c0,5.523,4.478,10,10,10s10-4.477,10-10v-44.912
	c25-4.626,44-26.577,44-52.896V285.123C512,255.279,487.863,231,458.193,231z"/>
<path d="M502.001,129.282c-10.752,0-19.5-8.748-19.5-19.5s8.748-19.5,19.5-19.5c5.522,0,10-4.477,10-10s-4.478-10-10-10
	c-11.632,0-22.104,5.057-29.339,13.085c-7.323-8.396-18.086-13.717-30.075-13.717h-9.162c-2.571-3.711-5.542-7.122-8.862-10.162
	l15.142-15.142h24.861c5.522,0,10-4.477,10-10s-4.478-10-10-10h-29.003c-2.652,0-5.195,1.054-7.071,2.929l-21.153,21.152
	c-5.685-2.398-11.818-3.929-18.23-4.462V10c0-5.523-4.478-10-10-10s-10,4.477-10,10v33.739h-15.031
	c-2.511,0-4.981,0.173-7.411,0.474l-16.939-16.939c-1.876-1.875-4.419-2.929-7.071-2.929h-36.53c-5.522,0-10,4.477-10,10
	s4.478,10,10,10h32.388l6.773,6.773c-18.57,10.206-31.186,29.954-31.186,52.598v12.131c0,22.643,12.617,42.392,31.186,52.597
	l-6.773,6.773h-32.388c-5.522,0-10,4.477-10,10s4.478,10,10,10h36.53c2.652,0,5.195-1.054,7.071-2.929l16.938-16.939
	c2.431,0.301,4.901,0.474,7.412,0.474h15.031v33.739c0,5.523,4.478,10,10,10s10-4.477,10-10v-33.964
	c6.412-0.533,12.545-2.064,18.23-4.462l21.153,21.152c1.876,1.875,4.419,2.929,7.071,2.929h29.003c5.522,0,10-4.477,10-10
	s-4.478-10-10-10h-24.861l-15.142-15.142c3.451-3.16,6.533-6.716,9.172-10.598h8.852c11.886,0,22.568-5.229,29.887-13.499
	c7.241,8.152,17.792,13.302,29.527,13.302c5.522,0,10-4.477,10-10S507.524,129.282,502.001,129.282z M314.101,115.848v-12.131
	c0-22.043,17.934-39.978,39.978-39.978h30.022c20.716,0,37.799,15.84,39.782,36.043h-49.065c-5.522,0-10,4.477-10,10s4.478,10,10,10
	h49.065c-1.983,20.204-19.066,36.043-39.782,36.043h-30.022C332.034,155.825,314.101,137.891,314.101,115.848z M442.587,129.479
	h-0.09c1.023-4.382,1.581-8.941,1.581-13.631v-12.131c0-4.845-0.593-9.552-1.682-14.066h0.191c10.98,0,19.914,8.934,19.914,19.914
	C462.501,120.545,453.568,129.479,442.587,129.479z"/>
<g>
</g>
<g>
</g>
<g>
</g>
<g>
</g>
<g>
</g>
<g>
</g>
<g>
</g>
<g>
</g>
<g>
</g>
<g>
</g>
<g>
</g>
<g>
</g>
<g>
</g>
<g>
</g>
<g>
</g>
</svg>
